<?xml version="1.0" encoding="iso-8859-1"?>
<!-- Uploaded to: SVG Repo, www.svgrepo.com, Generator: SVG Repo Mixer Tools -->
<svg fill="#000000" height="800px" width="800px" version="1.1" id="Layer_1" xmlns="http://www.w3.org/2000/svg" xmlns:xlink="http://www.w3.org/1999/xlink" 
	 viewBox="0 0 459.981 459.981" xml:space="preserve">
<g id="XMLID_233_">
	<g>
		<g>
			<path d="M419.333,0H40.648C19.657,0,2.58,17.077,2.58,38.068v383.844c0,20.991,17.077,38.069,38.068,38.069h378.685
				c20.991,0,38.068-17.078,38.068-38.069V38.068C457.401,17.077,440.324,0,419.333,0z M47.749,72.513
				c0-15.161,12.29-27.451,27.451-27.451h309.58c15.161,0,27.451,12.29,27.451,27.451v226.952c0,15.161-12.29,27.451-27.451,27.451
				H75.2c-15.161,0-27.451-12.29-27.451-27.451V72.513z M412.231,398.359H144.28v2.749c0,13.254-10.745,23.999-23.999,23.999
				s-23.999-10.745-23.999-23.999v-2.749H47.75c-5.522,0-10-4.477-10-10s4.478-10,10-10h48.532v-2.75
				c0-13.254,10.745-23.999,23.999-23.999s23.999,10.745,23.999,23.999v2.75h267.952c5.522,0,10,4.477,10,10
				C422.231,393.882,417.754,398.359,412.231,398.359z"/>
			<path d="M75.2,306.916h309.58c4.108,0,7.451-3.342,7.451-7.451V72.513c0-4.108-3.342-7.451-7.451-7.451H75.2
				c-4.108,0-7.451,3.342-7.451,7.451v226.952C67.749,303.573,71.091,306.916,75.2,306.916z M177.147,142.339
				c0-3.58,1.882-6.897,4.956-8.732c3.074-1.836,6.886-1.921,10.038-0.223l81.056,43.65c3.294,1.774,5.349,5.214,5.349,8.956
				c-0.001,3.741-2.055,7.18-5.349,8.954l-81.056,43.651c-3.152,1.698-6.965,1.613-10.038-0.223
				c-3.074-1.836-4.956-5.152-4.956-8.732V142.339z"/>
		</g>
	</g>
</g>
</svg>